<?xml version="1.0" encoding="utf-8"?>
<!-- Generator: Adobe Illustrator 19.0.0, SVG Export Plug-In . SVG Version: 6.00 Build 0)  -->
<svg version="1.1" baseProfile="tiny" id="Calque_1"
	 xmlns="http://www.w3.org/2000/svg" xmlns:xlink="http://www.w3.org/1999/xlink" x="0px" y="0px" viewBox="0 0 114.3 147"
	 xml:space="preserve">
<path id="XMLID_212_" fill="none" stroke="#7F5FBF" stroke-width="7" stroke-miterlimit="10" d="M97.3,143.3H18c-6.6,0-12-5.4-12-12
	V16.2c0-6.6,5.4-12,12-12h79.3c6.6,0,12,5.4,12,12v115.2C109.3,137.9,103.9,143.3,97.3,143.3z"/>
<path id="XMLID_213_" fill="none" stroke="#7F5FBF" stroke-width="7" stroke-miterlimit="10" d="M107.6,15.6
	c-2.8-0.1-5.5-0.1-8.3-0.2c0-2.8,0-5.7,0-8.5c1.3,0.6,3.2,1.8,5.1,3.8C106.1,12.5,107,14.3,107.6,15.6z"/>
<rect id="XMLID_227_" x="101.8" y="11.7" fill="none" stroke="#7F5FBF" stroke-width="7" stroke-miterlimit="10" width="2" height="2.6"/>
</svg>
